<svg id="visual" viewBox="0 0 960 540" width="960" height="540" xmlns="http://www.w3.org/2000/svg" xmlns:xlink="http://www.w3.org/1999/xlink" version="1.1"><rect x="0" y="0" width="960" height="540" fill="#002233"></rect><path d="M0 456L16 451.2C32 446.3 64 436.7 96 417.7C128 398.7 160 370.3 192 370.5C224 370.7 256 399.3 288 415.7C320 432 352 436 384 441.5C416 447 448 454 480 455C512 456 544 451 576 441.3C608 431.7 640 417.3 672 403.5C704 389.7 736 376.3 768 376.3C800 376.3 832 389.7 864 393.3C896 397 928 391 944 388L960 385L960 541L944 541C928 541 896 541 864 541C832 541 800 541 768 541C736 541 704 541 672 541C640 541 608 541 576 541C544 541 512 541 480 541C448 541 416 541 384 541C352 541 320 541 288 541C256 541 224 541 192 541C160 541 128 541 96 541C64 541 32 541 16 541L0 541Z" fill="#ee2e2e" stroke-linecap="round" stroke-linejoin="miter"></path></svg>